<svg xmlns="http://www.w3.org/2000/svg" xmlns:xlink="http://www.w3.org/1999/xlink" width="133" height="40"><defs><path id="a" d="M0 .03h38.9V40H0z"/><path id="c" d="M0 40h133V0H0z"/></defs><g fill="none" fill-rule="evenodd"><mask id="b" fill="#fff"><use xlink:href="#a"/></mask><path fill="#FFF" d="M32.43.13L4.37 5.37C1.97 5.8 0 8.15 0 10.99v17.7c0 2.9 1.96 5.21 4.36 5.66l28.08 5.54c3.55.68 6.46-1.96 6.46-5.75v-28C38.9 1.96 36-.51 32.43.13" mask="url(#b)"/><path fill="#000" d="M32.5 26a5.18 5.18 0 01-4.5-2.48l1.9-1.5c1.12 1.25 1.85 1.6 2.95 1.6.8 0 1.4-.42 1.4-1.03 0-.77-.76-1.11-2.81-1.54-1.93-.41-3.11-1.44-3.11-3.5C28.33 15.6 30 14 32.76 14c1.93 0 3.35.9 4.12 1.95L35 17.6a3 3 0 00-2.4-1.11c-.95 0-1.56.38-1.56 1.06 0 .6.38.96 2.03 1.32 2.45.55 3.93 1.46 3.93 3.57 0 2.18-1.95 3.57-4.5 3.57m-13.42-7.3c.25-1.48 1.08-2.37 2.5-2.37 1.46 0 2.34.89 2.45 2.37h-4.95zm7.92.84c0-3.2-1.96-5.54-5.4-5.54-3.35 0-5.6 2.4-5.6 6 0 3.49 2.5 6 5.83 6 2.4 0 3.89-1 5.06-3.06l-2.34-1.23a3.16 3.16 0 01-2.73 1.69c-1.57.02-2.56-.9-2.8-2.37h7.87c.09-.48.11-1.05.11-1.49zM8.52 23.4c-1.57 0-2.6-1.3-2.6-3.3s1.03-3.3 2.6-3.3c1.7 0 2.6 1.3 2.6 3.3 0 2-.9 3.3-2.6 3.3zm2.6-13.4v5.38A4.16 4.16 0 008.2 14.2c-3 0-5.19 2.49-5.19 5.9C3 23.53 5.19 26 8.2 26c1.32 0 2.42-.63 3.24-1.57l.22 1.28H14V10h-2.87z" mask="url(#b)"/><path fill="#111" d="M44.08 20c0 2.03 1.03 3.35 2.71 3.35 1.12 0 1.99-.45 2.69-1.73L52 22.83C51.02 25 49.06 26 46.72 26 43.38 26 41 23.51 41 20c0-3.52 2.38-6 5.72-6 2.34 0 4.3 1 5.28 3.17l-2.52 1.21c-.7-1.28-1.57-1.73-2.69-1.73-1.68 0-2.7 1.32-2.7 3.35m16.86 0c0-1.99-1.11-3.35-2.96-3.35-1.83 0-2.94 1.37-2.94 3.35 0 2 1.11 3.35 2.94 3.35 1.85 0 2.96-1.34 2.96-3.35M64 20c0 3.49-2.45 6-6.01 6A5.74 5.74 0 0152 20c0-3.47 2.43-6 5.99-6A5.77 5.77 0 0164 20m5.1-2.19V26H66V14.3h2.53l.22 1.13a5.77 5.77 0 013.8-1.43c1.83 0 2.86.65 3.4 1.66A5.7 5.7 0 0180 14c3.5 0 4.01 2.4 4.01 4.84V26h-3.1v-7.25c0-1.62-.48-2.06-1.65-2.06-.98 0-2 .47-2.72 1.17.02.33.02.65.02.98V26h-3.1v-7.25c0-1.62-.48-2.06-1.65-2.06-.98 0-1.96.47-2.7 1.12m25.98 2.3c0-2.06-1.03-3.41-2.6-3.41-1.7 0-2.6 1.35-2.6 3.42s.9 3.41 2.6 3.41c1.57 0 2.6-1.35 2.6-3.41M89.88 25v5H87V14.3h2.34l.22 1.33A4.2 4.2 0 0192.81 14c3 0 5.19 2.56 5.19 6.12 0 3.53-2.19 6.11-5.2 6.11A4.09 4.09 0 0189.88 25m13.32 1c-2 0-3.19-1.06-3.19-3.45V10h2.9v11.91c0 .93.34 1.3 1.1 1.3v2.75c-.22.02-.5.04-.8.04"/><mask id="d" fill="#fff"><use xlink:href="#c"/></mask><path fill="#111" d="M106.41 26h3.18V14.45h-3.18V26zM108 9c1.12 0 2 .85 2 1.92 0 1.01-.88 1.87-2 1.87-1.1 0-2-.86-2-1.87 0-1.06.9-1.92 2-1.92zm6.08 11c0 2.03 1.03 3.35 2.71 3.35 1.12 0 1.99-.45 2.69-1.73l2.52 1.21c-.98 2.17-2.94 3.17-5.28 3.17-3.34 0-5.72-2.49-5.72-6s2.38-6 5.72-6c2.34 0 4.3 1 5.28 3.17l-2.52 1.21c-.7-1.28-1.57-1.73-2.69-1.73-1.68 0-2.7 1.32-2.7 3.35M126 22.15c0 .91.84 1.5 1.89 1.5 1.06 0 1.86-.59 1.88-1.5 0-.9-.8-1.53-1.88-1.53-1.05 0-1.89.62-1.89 1.53zm4.55 2.53a4.78 4.78 0 01-3.28 1.32C125 26 123 24.36 123 22.15c0-2.41 2-3.87 4.43-3.87 1.23 0 2.05.45 2.61.98v-1.19c0-.93-.75-1.59-2.15-1.59-.84 0-1.89.16-3.1.82l-.84-2.19A8.9 8.9 0 01128.4 14c3.06 0 4.61 1.73 4.61 4.58v7.1h-2.32l-.13-1z" mask="url(#d)"/></g></svg>
